<svg id="Layer_1" data-name="Layer 1" xmlns="http://www.w3.org/2000/svg" viewBox="0 0 71 32"><defs><style>.cls-1{opacity:0.25;}.cls-2{fill:#fff;}.cls-3{fill:none;stroke:#fff;stroke-miterlimit:10;}</style></defs><g class="cls-1"><path class="cls-2" d="M18,20.51c.35,2.24-.52,4-2.16,4.28s-2.9-1-3.25-3.26.63-4.06,2.17-4.3S17.67,18.31,18,20.51Zm-3.26-2.37c-.86.14-1.37,1-1.06,3,.25,1.62,1,2.94,2.1,2.76s1.35-1.53,1.14-2.9-.92-3-2.16-2.86Z"/><path class="cls-2" d="M15.51,25.18c-1.59,0-2.92-1.44-3.26-3.6-.38-2.4.69-4.43,2.48-4.71s3.28,1.27,3.64,3.59h0c.39,2.47-.62,4.4-2.45,4.69Zm-.39-7.61a1.31,1.31,0,0,0-.28,0c-1.38.22-2.19,1.88-1.87,3.88s1.47,3.17,2.84,3,2.17-1.81,1.85-3.86C17.38,18.8,16.31,17.57,15.12,17.57Zm.47,6.69c-1.11,0-1.95-1.13-2.25-3.09a4.61,4.61,0,0,1,.11-2.36,1.61,1.61,0,0,1,1.25-1h0a1.79,1.79,0,0,1,1.83.94A5.73,5.73,0,0,1,17.3,21c.29,1.89-.24,3.13-1.44,3.32ZM15,18.49h-.15a.86.86,0,0,0-.7.58,4,4,0,0,0-.07,2c.21,1.29.76,2.61,1.7,2.46s.94-1.8.83-2.49A4.94,4.94,0,0,0,16,19.13,1.14,1.14,0,0,0,15,18.49Z"/></g><g class="cls-1"><path class="cls-2" d="M26.29,18.15c-.2-1.22-.69-1.78-1.51-1.65a1.29,1.29,0,0,0-1,.79,1.76,1.76,0,0,0,0,1.11l.43,2.73c.2,1.29.25,1.46.74,1.48h.28a.39.39,0,0,1,.05.45A8.26,8.26,0,0,0,24,23.2a11.74,11.74,0,0,0-1.18.24.4.4,0,0,1-.1-.44l.23-.09c.47-.19.45-.35.25-1.64l-.41-2.59c-.18-1.19-.68-1.78-1.49-1.65a1.26,1.26,0,0,0-1,.82,1.71,1.71,0,0,0,0,1l.44,2.77c.2,1.28.25,1.44.74,1.47h.24a.37.37,0,0,1,0,.45,8.11,8.11,0,0,0-1.19.13c-.45.07-.86.16-1.26.26a.42.42,0,0,1-.1-.45l.31-.1c.47-.17.45-.35.25-1.63l-.49-3.13c-.11-.7-.12-.79-.53-1.05l-.13-.09a.33.33,0,0,1,0-.33,6.31,6.31,0,0,0,1.17-1.08.17.17,0,0,1,.16.11,3.68,3.68,0,0,0,.11.84c0,.16.08.19.17.17a2.76,2.76,0,0,1,1.6-1.18c.65-.1,1.07.16,1.55.84.12,0,.2-.07.3-.2a2.88,2.88,0,0,1,1.63-1.19c1.05-.16,1.71.74,1.91,2l.48,3.07c.2,1.29.26,1.46.74,1.48h.32a.39.39,0,0,1,0,.45c-.43,0-.86.08-1.28.15a8,8,0,0,0-1.18.24.42.42,0,0,1-.1-.45l.23-.09c.47-.18.45-.34.25-1.63Z"/><path class="cls-2" d="M19.28,24.39l-.1-.05a.58.58,0,0,1-.33-.4.72.72,0,0,1,.07-.59l.07-.09.41-.14.13-.06a4.68,4.68,0,0,0-.12-1.18l-.49-3.12c-.1-.63-.1-.63-.37-.81l-.19-.13a.69.69,0,0,1-.05-.83h0a6.75,6.75,0,0,0,1.07-1l.09-.12h.15a.5.5,0,0,1,.55.3v.47a2.6,2.6,0,0,1,1.42-.84,1.72,1.72,0,0,1,1.69.7,3.11,3.11,0,0,1,1.8-1.25,1.74,1.74,0,0,1,1.6.58,3.34,3.34,0,0,1,.71,1.7l.61,3a4.54,4.54,0,0,0,.26,1.16h.56l.09.06a.71.71,0,0,1,.25.54.6.6,0,0,1-.18.49l-.09.07h-.12a8.25,8.25,0,0,0-1.24.14,11.17,11.17,0,0,0-1.15.24h-.11l-.11-.05a.58.58,0,0,1-.33-.4.72.72,0,0,1,.07-.59L26,22.1l.33-.12c.11-.05.14-.07.14-.08a4.53,4.53,0,0,0-.12-1.16l-.4-2.59A2.41,2.41,0,0,0,25.48,17a.68.68,0,0,0-.66-.2.9.9,0,0,0-.7.56c-.09.21-.11.33,0,.92L24.55,21a4.55,4.55,0,0,0,.25,1.15h.53l.09.06a.71.71,0,0,1,.25.54.6.6,0,0,1-.18.49l-.09.07h-.12a7.37,7.37,0,0,0-1.2.14c-.43.07-.78.14-1.15.23h-.22a.59.59,0,0,1-.33-.41.72.72,0,0,1,.07-.59l.06-.08.32-.13.15-.07a4.61,4.61,0,0,0-.12-1.17l-.4-2.59c-.24-1.48-.85-1.39-1.08-1.35a1,1,0,0,0-.72.59,1.4,1.4,0,0,0,0,.86l.43,2.77a5,5,0,0,0,.26,1.15h.5l.08.06a.71.71,0,0,1,.25.54.58.58,0,0,1-.19.49L21.9,24h-.12a11.12,11.12,0,0,0-1.16.13c-.44.07-.82.15-1.22.25Zm-.28-7c.49.33.53.56.64,1.26l.49,3.13c.13.87.21,1.37,0,1.69l.37-.07.39,0c-.31-.24-.38-.73-.52-1.61L19.94,19A2.15,2.15,0,0,1,20,17.72a.13.13,0,0,1,.05-.1.55.55,0,0,1-.39-.46.83.83,0,0,0-.05-.32c-.2.16-.43.39-.61.54Zm2.54-.72c.59,0,1.38.33,1.64,2l.41,2.59c.14.87.21,1.37,0,1.69l.38-.07.38-.05c-.3-.25-.38-.76-.51-1.61l-.43-2.74a2.28,2.28,0,0,1,0-1.16h-.28L23,17.14c-.47-.67-.77-.76-1.2-.69a1.5,1.5,0,0,0-.55.23Zm5.1,1.43.41,2.59c.14.88.22,1.37,0,1.69l.38-.06.39-.06c-.31-.24-.39-.75-.52-1.61l-.48-3.07a2.5,2.5,0,0,0-.55-1.32,1,1,0,0,0-.94-.35,1.47,1.47,0,0,0-.56.24,1.36,1.36,0,0,1,1.27.44A2.78,2.78,0,0,1,26.64,18.1Z"/></g><g class="cls-1"><path class="cls-2" d="M36.91,16.54c-.19-1.22-.68-1.78-1.5-1.65a1.3,1.3,0,0,0-1,.8,1.87,1.87,0,0,0,0,1.1l.43,2.73c.21,1.29.26,1.46.74,1.48h.29a.41.41,0,0,1,0,.45,8.26,8.26,0,0,0-1.24.14,11.74,11.74,0,0,0-1.18.24.38.38,0,0,1-.09-.44l.22-.09c.47-.19.46-.35.26-1.64l-.41-2.59c-.19-1.19-.68-1.78-1.49-1.65a1.3,1.3,0,0,0-1,.82,1.88,1.88,0,0,0,0,1.05l.43,2.77c.2,1.28.26,1.44.74,1.47h.25a.41.41,0,0,1,0,.45,8.23,8.23,0,0,0-1.2.13c-.46.07-.86.16-1.26.26a.4.4,0,0,1-.09-.45l.3-.1c.47-.16.46-.34.26-1.63l-.5-3.13c-.1-.7-.12-.79-.52-1h-.11a.31.31,0,0,1,0-.32A6.61,6.61,0,0,0,30.4,14.6a.16.16,0,0,1,.17.1,4.61,4.61,0,0,0,.1.84c0,.16.09.19.18.18a2.8,2.8,0,0,1,1.59-1.19c.66-.1,1.07.16,1.55.84.13,0,.21-.07.31-.2A2.88,2.88,0,0,1,35.93,14c1-.16,1.71.74,1.9,2l.45,3c.21,1.29.26,1.46.75,1.48h.32a.41.41,0,0,1,0,.45,8,8,0,0,0-1.27.15,8,8,0,0,0-1.18.24.42.42,0,0,1-.1-.45l.23-.09c.46-.18.45-.34.25-1.63Z"/><path class="cls-2" d="M29.91,22.78l-.11-.05a.59.59,0,0,1-.32-.4.68.68,0,0,1,.07-.59l.07-.09.41-.14.13-.06A5.24,5.24,0,0,0,30,20.27l-.49-3.12c-.1-.63-.1-.63-.37-.81L29,16.21a.66.66,0,0,1,0-.82h0a6.41,6.41,0,0,0,1.08-1l.09-.13h.15a.53.53,0,0,1,.55.3v.12a2,2,0,0,0,0,.35,2.6,2.6,0,0,1,1.42-.84,1.7,1.7,0,0,1,1.68.7,3.18,3.18,0,0,1,1.8-1.24c1.16-.19,2.07.71,2.32,2.27L38.57,19a4.54,4.54,0,0,0,.26,1.16h.56l.1.06a.69.69,0,0,1,.24.55.54.54,0,0,1-.18.48l-.09.07h-.11a7.24,7.24,0,0,0-1.25.15,8.85,8.85,0,0,0-1.14.23h-.12l-.11-.05a.59.59,0,0,1-.32-.4.68.68,0,0,1,.07-.59l.06-.08.32-.13.14-.07a4.24,4.24,0,0,0,0-1.18l-.41-2.59c-.23-1.49-.83-1.39-1.09-1.35a1,1,0,0,0-.7.56c-.08.22-.1.33,0,.92l.43,2.74a4.17,4.17,0,0,0,.26,1.15H36l.09.06a.69.69,0,0,1,.24.55.54.54,0,0,1-.18.48l-.09.08h-.12a7.37,7.37,0,0,0-1.2.14c-.43.07-.78.14-1.14.23h-.23a.61.61,0,0,1-.32-.41.68.68,0,0,1,.07-.59l.06-.08L33.5,21c.12,0,.14-.07.14-.07a4.19,4.19,0,0,0-.11-1.17l-.41-2.59c-.23-1.48-.84-1.39-1.07-1.35a.92.92,0,0,0-.72.6,1.37,1.37,0,0,0,0,.85L31.72,20A4.19,4.19,0,0,0,32,21.16h.49l.09.05a.69.69,0,0,1,.24.55.54.54,0,0,1-.18.48l-.09.08h-.12a11.12,11.12,0,0,0-1.16.13c-.45.07-.82.15-1.23.25Zm-.29-7c.5.33.53.56.64,1.26l.49,3.13c.14.87.22,1.37,0,1.69l.37-.06.38-.06c-.3-.24-.38-.73-.52-1.61l-.43-2.77a2.18,2.18,0,0,1,.06-1.24V16a.52.52,0,0,1-.38-.46.83.83,0,0,0-.05-.32,6.82,6.82,0,0,1-.56.53Zm2.55-.72c.58,0,1.38.33,1.64,2l.41,2.59c.13.87.21,1.37,0,1.69l.39-.07H35c-.3-.25-.38-.76-.51-1.61L34,16.85a2.32,2.32,0,0,1,0-1.17h-.28l-.09-.13c-.48-.67-.78-.76-1.2-.69a1.57,1.57,0,0,0-.55.23Zm5.1,1.43.41,2.6c.13.87.21,1.36,0,1.68l.38-.06.38-.06c-.3-.24-.38-.75-.51-1.6L37.44,16c-.06-.43-.37-1.84-1.48-1.67a1.51,1.51,0,0,0-.57.24c.71-.1,1.6.17,1.88,2Z"/></g><g class="cls-1"><path class="cls-2" d="M40.9,17.85c.19,1.23.54,2,1.53,1.86a1.48,1.48,0,0,0,1-.7,1.55,1.55,0,0,0,.1-1.08L43.05,15c-.19-1.16-.28-1.18-.71-1.34l-.18-.06a.29.29,0,0,1,0-.39,4.09,4.09,0,0,0,1.48-.56.12.12,0,0,1,.13.1A14,14,0,0,0,44,14.31l.47,3c.22,1.41.35,1.94.71,1.88a2.27,2.27,0,0,0,.5-.17c.09.08.16.43.07.52a5.29,5.29,0,0,0-1.61.93.17.17,0,0,1-.18-.1l-.11-.73c0-.16-.08-.25-.16-.23A3,3,0,0,1,42,20.63c-1.15.18-1.7-.54-1.93-2l-.47-3c-.17-1.13-.2-1.29-.63-1.46l-.17-.06c-.09-.08-.12-.33,0-.4a3.41,3.41,0,0,0,1.34-.54c.09,0,.13,0,.15.1a12,12,0,0,0,.21,1.56Z"/><path class="cls-2" d="M41.63,21c-1.59,0-1.86-1.73-2-2.32l-.46-3C39,14.6,39,14.6,38.76,14.51l-.22-.09h0a.71.71,0,0,1-.22-.52.59.59,0,0,1,.19-.43l.07-.06h.09a3.06,3.06,0,0,0,1.2-.48l.11-.07h.13a.51.51,0,0,1,.47.34v.1a12.79,12.79,0,0,0,.2,1.53l.47,3a3.13,3.13,0,0,0,.4,1.3.64.64,0,0,0,.72.26,1.14,1.14,0,0,0,.72-.53,1.31,1.31,0,0,0,0-.83l-.46-2.93c-.15-.94-.17-1-.46-1L42,13.92a.61.61,0,0,1-.28-.46.56.56,0,0,1,.16-.52l.08-.07h.1a3.83,3.83,0,0,0,1.31-.48l.12-.1h.16a.52.52,0,0,1,.44.34v.09a12,12,0,0,0,.2,1.54l.47,3a7.72,7.72,0,0,0,.34,1.57,1.48,1.48,0,0,0,.35-.13l.21-.1.18.15a.92.92,0,0,1,.24.61.54.54,0,0,1-.16.45v.05l-.23.1a4.48,4.48,0,0,0-1.32.77l-.08.09h-.12a.55.55,0,0,1-.56-.28v-.06l-.06-.38A2.68,2.68,0,0,1,42,21Zm-2.34-7c.41.24.47.62.63,1.63l.47,3c.26,1.64.88,1.78,1.52,1.68a1.47,1.47,0,0,0,.49-.19,1.33,1.33,0,0,1-1.33-.57,3.7,3.7,0,0,1-.53-1.61l-.47-3c-.09-.58-.14-.94-.17-1.2A4.66,4.66,0,0,1,39.29,14Zm4.49,5.11a.34.34,0,0,1,.12.06.66.66,0,0,1,.23.45l.06.32a5.19,5.19,0,0,1,.65-.37c-.48-.17-.61-1-.8-2.17l-.47-3c-.07-.47-.13-.87-.17-1.19a5.54,5.54,0,0,1-.68.25c.41.21.53.52.69,1.51l.46,2.94a2.12,2.12,0,0,1-.09,1.17Z"/></g><g class="cls-1"><path class="cls-2" d="M46.76,14.43c-.11-.7-.13-.79-.53-1.06l-.13-.09a.31.31,0,0,1,0-.32,6.31,6.31,0,0,0,1.17-1.08.16.16,0,0,1,.16.1,3.7,3.7,0,0,0,.11.85.18.18,0,0,0,.17.17,3.16,3.16,0,0,1,1.69-1.2c1.08-.17,1.69.78,1.87,2l.49,3.07c.2,1.29.25,1.46.74,1.48h.29a.41.41,0,0,1,0,.45,10.23,10.23,0,0,0-1.24.14,12.32,12.32,0,0,0-1.21.24.38.38,0,0,1-.09-.44l.24-.09c.46-.19.45-.35.25-1.64l-.42-2.66c-.16-1-.62-1.72-1.5-1.58a1.32,1.32,0,0,0-1,.8,1.91,1.91,0,0,0,0,1.11l.43,2.73c.2,1.29.25,1.44.74,1.48h.24c.1.08.13.39,0,.46a9.41,9.41,0,0,0-1.19.13c-.47.07-.86.15-1.22.24-.1,0-.18-.33-.1-.44l.27-.09c.47-.17.45-.35.25-1.64Z"/><path class="cls-2" d="M46.8,20.11l-.11-.05a.59.59,0,0,1-.32-.4.72.72,0,0,1,.07-.59l.07-.09.36-.14c.11,0,.13-.05.14-.06a4.61,4.61,0,0,0-.12-1.17l-.49-3.13c-.1-.63-.1-.63-.37-.8l-.19-.14a.65.65,0,0,1-.05-.82h0a6.41,6.41,0,0,0,1.08-1l.09-.13h.15a.52.52,0,0,1,.55.31v.48a2.86,2.86,0,0,1,1.51-.89,1.68,1.68,0,0,1,1.61.6,3.55,3.55,0,0,1,.68,1.68l.48,3.08A4.59,4.59,0,0,0,52.33,18H53a.71.71,0,0,1,.25.54.6.6,0,0,1-.18.49L53,19.1h-.12a8.61,8.61,0,0,0-1.2.13,9.59,9.59,0,0,0-1.17.24h-.23a.61.61,0,0,1-.32-.41.68.68,0,0,1,.07-.59l.06-.08.34-.13.14-.07A4.61,4.61,0,0,0,50.43,17L50,14.4c-.22-1.41-.87-1.31-1.09-1.28a.94.94,0,0,0-.72.56,1.64,1.64,0,0,0,0,.93l.43,2.73a4.17,4.17,0,0,0,.26,1.15.38.38,0,0,0,.15,0h.35l.08.06a.71.71,0,0,1,.25.54.65.65,0,0,1-.19.49l-.09.07h-.12a11.12,11.12,0,0,0-1.16.13A11.74,11.74,0,0,0,47,20Zm-.32-7c.49.34.53.56.64,1.27l.49,3.13c.13.87.21,1.37,0,1.68l.37-.06.39-.06c-.31-.23-.39-.73-.52-1.6l-.43-2.74a2.32,2.32,0,0,1,0-1.28v-.1a.5.5,0,0,1-.22-.13.67.67,0,0,1-.15-.33v-.32a7.15,7.15,0,0,1-.57.53ZM49,12.39c.55,0,1.4.27,1.66,1.89L51.11,17c.13.87.21,1.37,0,1.69l.39-.07.37-.06c-.3-.24-.38-.75-.51-1.6l-.48-3.08a2.64,2.64,0,0,0-.53-1.32,1,1,0,0,0-.94-.35,1.45,1.45,0,0,0-.57.24Z"/></g><g class="cls-1"><path class="cls-2" d="M11.71,23.28a14.59,14.59,0,0,1-.09,1.46,15.88,15.88,0,0,1-1.49.74,6.51,6.51,0,0,1-1.49.43,4.89,4.89,0,0,1-2.05-.07,5.14,5.14,0,0,1-2-.92A6.12,6.12,0,0,1,3,23.15a7.52,7.52,0,0,1-.93-2.59,6.69,6.69,0,0,1,.25-3.63,5.37,5.37,0,0,1,1.81-2.47,5.93,5.93,0,0,1,2.63-1.15A5.13,5.13,0,0,1,9,13.39a2.38,2.38,0,0,0,.75.06l.16-.07H10a.14.14,0,0,1,.11.06V14q0,.93,0,1.86a.24.24,0,0,1-.21-.08.67.67,0,0,1-.1-.28,1.88,1.88,0,0,0-.28-.79A2.47,2.47,0,0,0,8.3,14a3.83,3.83,0,0,0-1.81-.13,3.42,3.42,0,0,0-2,1A4.64,4.64,0,0,0,3.37,17.1a8.4,8.4,0,0,0,0,3.16,7.29,7.29,0,0,0,1,2.7,5.23,5.23,0,0,0,1.51,1.63,4.65,4.65,0,0,0,1.62.73,3.51,3.51,0,0,0,1.33.08A2.66,2.66,0,0,0,11,23.81a7.8,7.8,0,0,0,.43-1.23c0-.19.1-.3.16-.31s.16,0,.18.15A4.94,4.94,0,0,1,11.71,23.28Z"/><path class="cls-2" d="M7.8,26.44a5.78,5.78,0,0,1-3.47-1.15,6.37,6.37,0,0,1-1.72-1.9,8,8,0,0,1-1-2.76,7.24,7.24,0,0,1,.27-3.86,6,6,0,0,1,2-2.68A6.55,6.55,0,0,1,6.7,12.86,5.7,5.7,0,0,1,9.06,13a1.87,1.87,0,0,0,.53.05L9.71,13h.21a.57.57,0,0,1,.51.18l.15.14v.76c0,.6,0,1.21,0,1.81v.49H10.1A.65.65,0,0,1,9.54,16a1.06,1.06,0,0,1-.19-.48,2,2,0,0,0-.18-.58,2,2,0,0,0-1-.51,3.34,3.34,0,0,0-1.6-.12,3.05,3.05,0,0,0-1.71.91,4.22,4.22,0,0,0-1,2,7.57,7.57,0,0,0,0,3,7.15,7.15,0,0,0,.9,2.54,4.94,4.94,0,0,0,1.38,1.5,4.43,4.43,0,0,0,1.47.66A3,3,0,0,0,8.77,25a2.4,2.4,0,0,0,1.15-.48,2.5,2.5,0,0,0,.63-.81,6.81,6.81,0,0,0,.4-1.15.68.68,0,0,1,.52-.64.6.6,0,0,1,.7.47v0a6.61,6.61,0,0,1,0,.89h0s0,.26-.09,1.42V25l-.21.12c-.5.28-1,.54-1.53.77a7.25,7.25,0,0,1-1.59.46A6.25,6.25,0,0,1,7.8,26.44ZM3.31,16a6,6,0,0,0-.58,1.12,6.31,6.31,0,0,0-.22,3.39A7.06,7.06,0,0,0,3.38,23a5.65,5.65,0,0,0,1.48,1.64,4.72,4.72,0,0,0,.87.51L5.64,25A5.87,5.87,0,0,1,4,23.24a7.69,7.69,0,0,1-1-2.86,8.48,8.48,0,0,1,0-3.33A6.33,6.33,0,0,1,3.31,16Zm7.87,8.47ZM9.27,13.9a1.69,1.69,0,0,1,.36.23.67.67,0,0,1,0-.2h0Z"/></g><g class="cls-1"><path class="cls-3" d="M64,16.33c-.18.23-.38.45-.57.66l.12-.12c0,.05,0,.08.19-.08a.27.27,0,0,1,.07-.16A2.11,2.11,0,0,1,64,16.4v-.06Z"/><path class="cls-3" d="M65.48,14.32a6.93,6.93,0,1,0-.94,2.25"/><path class="cls-3" d="M66,13.52Z"/><path class="cls-3" d="M65.57,14.19a.49.49,0,0,0,0,.17.52.52,0,0,1,.21.07h0a.74.74,0,0,1,0-.21.86.86,0,0,0,.06-.23,2,2,0,0,1-.06.34s.07-.27.1-.36a1.86,1.86,0,0,0,0-.41v-.09h0v-.22h0v.15h0a1.61,1.61,0,0,0,0-.31h0a.14.14,0,0,1,0-.09v-.16a.09.09,0,0,1,0-.07v0h0c0,.16,0,.14-.06.08h0c0-.09-.09-.17-.09.07v.28a.17.17,0,0,0,0,.1v.27s0,.22-.06.19,0,.17,0,.29S65.57,14.11,65.57,14.19Z"/><path class="cls-3" d="M65.83,13.07Z"/><path class="cls-3" d="M61.32,19a.19.19,0,0,0-.15.08,1.09,1.09,0,0,1-.36,0,3.21,3.21,0,0,1-1.22.25A7.27,7.27,0,0,0,61.26,19a7.4,7.4,0,0,1-6.1-.43L55,18.39a1.27,1.27,0,0,1-.36-.2c-.1-.1-.15-.26-.25-.36a5.9,5.9,0,0,1-1.17-1.17,4.55,4.55,0,0,1-.71-1.53A6.06,6.06,0,0,1,53,9.58l-.25.44a6.59,6.59,0,0,1,.89-1.52,2,2,0,0,0-.26.24,11.89,11.89,0,0,1,1.27-1.29h-.07a6,6,0,0,1,3.18-1.3h-.09a6.38,6.38,0,0,1,4.92,1.08,7.31,7.31,0,0,1,1.09.91h0a7.42,7.42,0,0,1,2,3.58,7.06,7.06,0,0,1,.18,1.12,6.23,6.23,0,0,0-.33-2.57,7,7,0,0,0-5.46-4.68,7.65,7.65,0,0,0-3.36.25A5.15,5.15,0,0,0,53.84,7.6c-.31.36-.71.56-1,1a8.93,8.93,0,0,0-1,2.09,8.13,8.13,0,0,0-.3,2.69,11.85,11.85,0,0,0,.2,1.33s.1.1.1.15a6.25,6.25,0,0,0,1.53,2.78.17.17,0,0,0,0-.1A7.34,7.34,0,0,0,56,19.45a5.78,5.78,0,0,0,.89.29h-.06a7.21,7.21,0,0,0,5.39-.5l-.28.1a7.72,7.72,0,0,0,3-2.46"/><path class="cls-3" d="M64.52,16.55a10.43,10.43,0,0,1-1,1.2c.08-.14.19-.27.28-.4a3.16,3.16,0,0,1-.42.4,2.74,2.74,0,0,0-.36.32,10,10,0,0,1-1,.7h.08l-.14.07"/><path class="cls-2" d="M65.33,17.56a1,1,0,0,0-.28-.62h0a3.35,3.35,0,0,1-.81.74,2.28,2.28,0,0,1-.33.29h0l-.33.23h-.06c-.16.09-.3.14-.43.2l-.25.1-.26.1-.31.15-.19.09-.16.08h-.55a3.3,3.3,0,0,0-.63.2h0a.31.31,0,0,0-.13.06l-.22.1h0l-.25.11H59.3c-.2,0-.35-.05-.36-.12s.37,0,.47-.05h0V19h0a1.58,1.58,0,0,0-.43.05h-.63a1,1,0,0,1-.53-.13s0,.08-.09.05l.39.1h.4l-.17.05h-.77l-.25-.05c-.16,0-.3-.05-.39-.05s-.12-.15-.06-.18H57V19a.29.29,0,0,0-.12-.1l-.26-.15a.43.43,0,0,1-.27-.06,2.14,2.14,0,0,1-.32-.2,4,4,0,0,0-.6-.42v.08c-.41-.3-.41-.47-.39-.61a.81.81,0,0,0,0-.22.83.83,0,0,0-.21-.28c.09.14.12.19.1.2s0,0-.1-.06-.18-.15,0,.14,0,.28-.1.38l-.06.07a.46.46,0,0,0,.09.3.42.42,0,0,0,.1.17,3.32,3.32,0,0,0,.47.37,2.36,2.36,0,0,1,.62.47l.81.4h0l.5.23a2.69,2.69,0,0,0,.55.17,1,1,0,0,0,.48,0c.12.07.25.13.38.19h0l.34.15h.46a2.81,2.81,0,0,0,.41,0c.24,0,.47-.1.7-.16h0L60.48,20c-.06,0-.1-.06,0-.11l.14-.07h.09l.3-.08h.29l-.24.16.28-.07h0c.39-.1.74-.17,1.08-.24a6.43,6.43,0,0,0,1.21-.35c.23-.15.48-.34.73-.53a8.16,8.16,0,0,0,.74-.7l.25-.27A.32.32,0,0,1,65.33,17.56Z"/><path class="cls-2" d="M65.71,17v.13a1.57,1.57,0,0,0,.18-.42Z"/><path class="cls-2" d="M66.08,15.72V15.6a.11.11,0,0,0,0-.08h0c-.17.26-.33.55-.51.83a1.48,1.48,0,0,1,.13.21.32.32,0,0,1,0,.27.21.21,0,0,0,.08.19.24.24,0,0,0,0-.22.11.11,0,0,1,0-.13,1.09,1.09,0,0,1,.08-.15,1.35,1.35,0,0,1,.15-.26,1.76,1.76,0,0,1,.24-.3h0A.81.81,0,0,1,66.08,15.72Z"/><path class="cls-2" d="M67.13,13.92a2.11,2.11,0,0,1-.1.5c0-.12,0,0-.1.16s-.05.11-.07.12,0,0,0-.16a1.63,1.63,0,0,0-.11.31,1.36,1.36,0,0,1-.07.25,2.15,2.15,0,0,0-.46-.33c0-.07,0-.13.06-.16a1.76,1.76,0,0,0,.19-.39c0-.1.06-.2.08-.3V13.7c0,.11.06,0,.07.18V13a.51.51,0,0,1,.09-.16.26.26,0,0,1,.11-.07v.43a.66.66,0,0,0,.06.33A1.72,1.72,0,0,1,67.13,13.92Z"/><path class="cls-2" d="M53,15.9c.15,0,0-.32-.07-.6s-.11-.49.15-.18a4.37,4.37,0,0,0-.34-1c0,.61-.08-.13-.12.21a6.75,6.75,0,0,1,.85-5.46c.11-.14.23-.26.34-.39l.32-.36c.22-.24.43-.47.66-.7s.45-.45.69-.67a9.1,9.1,0,0,1,.78-.61c.39-.15.48-.11.46,0a2.33,2.33,0,0,1-.2.34,8,8,0,0,1,.92-.36,7.35,7.35,0,0,0-.85.51c0,.11.41-.07.66-.08l.24-.11c-.08.27-.5.41-1,.62a3.94,3.94,0,0,0-1.32.85,2.27,2.27,0,0,0,.31-.31H55.4c-.08,0-.31.13-.17-.06l-.23.2a1.34,1.34,0,0,0,.2-.21l.28-.28a4.73,4.73,0,0,1,.84-.63,5.66,5.66,0,0,0-1.38,1,5.78,5.78,0,0,0-1,1.26,5.92,5.92,0,0,0-.86,2.8c0-.06,0-.2-.1,0a1.76,1.76,0,0,0,0,.79.85.85,0,0,0,.1.28l.08.22a2.68,2.68,0,0,1-.07-.27.91.91,0,0,0,0,.33v.38a3.34,3.34,0,0,0,.18.74v.74a2.55,2.55,0,0,0,.37.92h-.11c.09.22.19.43.3.64-.11-.14-.1,0-.1,0s0-.07-.11-.19-.11.13-.11.3a2,2,0,0,0,.13.58l-.1-.17-.09-.14c.06.17.26.51.39.76s.2.41-.07.22a1.86,1.86,0,0,1-.21-.28c-.05-.09-.1-.17-.13-.24V17a1.46,1.46,0,0,1-.05-.2,1.37,1.37,0,0,0-.11-.39c0-.15-.06-.14-.09-.23A1,1,0,0,0,53,15.9Z"/><path class="cls-2" d="M56.31,18.53c-.27-.21-.21-.21-.1-.17s.28.09.24,0l.26.14.26.12C56.94,18.75,56.41,18.48,56.31,18.53Z"/><path class="cls-2" d="M60.85,5.45a.6.6,0,0,0,.32.12,3.62,3.62,0,0,1,.47.13h.65a3,3,0,0,1,.76.32c-.33,0-.22.14,0,.33a5.52,5.52,0,0,1,.73.72,6.77,6.77,0,0,0-.66-.33,4.46,4.46,0,0,1-.77-.43c.1,0-.37-.29-.61-.39s-.17.13-.26.2-.13,0-.29,0H59.8c-.2,0-.37,0-.35-.1a.48.48,0,0,0-.29,0,.42.42,0,0,1-.31,0h-.12a5.62,5.62,0,0,1,1-.15.36.36,0,0,0,.2.06s0-.06.09-.08l.32-.07c.22,0,.39-.09.07-.23a8.66,8.66,0,0,0-1.44,0h-.12A.28.28,0,0,1,59,5.47l.28-.07h.38l.44.07h.79Z"/><path class="cls-2" d="M57.34,6.08h-.09a6.34,6.34,0,0,1,1.2-.35A6.22,6.22,0,0,0,57.34,6.08Z"/><path class="cls-2" d="M65.08,7.62l-.14-.12-.13-.12-.13-.13-.16-.1.1-.17a2.43,2.43,0,0,1,.24.32l.11.16Z"/><path class="cls-2" d="M54.24,9.32a1,1,0,0,1-.08.29.19.19,0,0,1-.07.17L54,10a1.41,1.41,0,0,0-.16.6c.08-.18,0-.14,0-.19-.06.11-.13.22-.19.34A3.53,3.53,0,0,1,54.24,9.32Z"/><path class="cls-2" d="M66.49,9.76c.19.39.33.62.45.87a2.32,2.32,0,0,1,.16.44,3.42,3.42,0,0,1,.09.63c0,.23-.13-.25-.13.07a1,1,0,0,0,.12.54l.06-.13a2.76,2.76,0,0,0-.08.27,2.45,2.45,0,0,1-.08.29c-.07.17-.15.25-.25.07a3,3,0,0,0-.3-1.42,4.8,4.8,0,0,1-.39-1.16l.13-.23L66,9.51s.06,0,0-.21-.12-.07-.09,0,.08.27,0,.28a5.89,5.89,0,0,0-.65-.84c-.07-.11.11.06.1,0a1.09,1.09,0,0,0-.08-.15l-.11-.13a2.31,2.31,0,0,0-.24-.2,1.13,1.13,0,0,1-.39-.45c.18.13.36.26.53.41-.25-.32-.48-.58-.7-.82s-.44-.45-.65-.64c.66.48,1.19.84,1.68,1.27a4,4,0,0,1,.66.71A3.4,3.4,0,0,1,66.49,9.76Z"/><path class="cls-2" d="M65.44,8.68h0l.07.05Z"/><path class="cls-2" d="M65.52,8.75Z"/><path class="cls-2" d="M66.72,11.92v-.17l-.06-.21a1.27,1.27,0,0,0-.13-.37c0-.13,0-.12-.07-.19l-.07-.16-.1-.2h0c0-.14-.11-.18-.09-.1V10.4h0l0-.15s0-.07.06,0A.84.84,0,0,1,66,9.83a4.67,4.67,0,0,1,.15.91c-.06-.11-.08-.32-.13-.44a3.17,3.17,0,0,0-.17-.69h0a.2.2,0,0,1-.12-.15h0c0-.07-.06-.12-.08-.22a1.17,1.17,0,0,1,.17.31V9.38a1.24,1.24,0,0,1-.1-.2s-.15-.24-.24-.35,0,0,0-.11h0v-.1c-.06-.08-.11-.12-.1-.08s0,0,0,.05l-.06-.06c-.17-.14-.32-.26-.29-.22h0c.12.17,0,.15-.1.14s-.23,0-.09.17v0a1,1,0,0,1,.19.22.62.62,0,0,0,.09.26c.07.11.06,0,.09.06s.09.2,0,.2,0,.16.12.25l.07,0,.11.24.08.23c0,.06,0,.22-.1.14s.12,0,0-.17c0,.12-.1-.16-.17-.21h0a1.12,1.12,0,0,0,.12.35h0v.34h0v.09s0,0-.07,0v.16h0a.37.37,0,0,1,0,.21v.12h0c0,.05.09.36.16.68h0a3,3,0,0,1,.06.42.45.45,0,0,1,0,.23v.17s0,0-.06,0h0v.21h0c0,.21-.07.45-.06.64a.39.39,0,0,0-.06-.23V13a.67.67,0,0,0,0,.2v.27h0a1.85,1.85,0,0,0-.08.33,1,1,0,0,1,0,.24.57.57,0,0,1-.07.22h0a.75.75,0,0,1,.29.09h0a3.1,3.1,0,0,1,.45.21,7.12,7.12,0,0,0,.29-1c0-.13.08-.25.13-.37v-.33h.06a.92.92,0,0,1,0-.33.86.86,0,0,0,0-.32.34.34,0,0,1,0-.2v-.27Zm-1.4-3.19h0a1.06,1.06,0,0,0-.17-.26h0l-.09-.08h0l-.06,0h0a.06.06,0,0,1,0-.06.08.08,0,0,0,.06.07,1.09,1.09,0,0,1,.28.19c.15.12.13.23.1.23h0v.06Zm.54,3a.24.24,0,0,1,0,.12l-.08-.36h0a1.14,1.14,0,0,0-.09-.31c0-.08,0,.12.07.19v.06a2.07,2.07,0,0,1,.1.33Z"/><path class="cls-2" d="M64.82,16.73a1.78,1.78,0,0,0-.78-.38h0a1.88,1.88,0,0,0-.16.23c-.05.08-.09.14-.07.16-.14.16-.17.13-.19.08l-.12.12c.19-.21.38-.42.55-.64H64l-.07.07c-.22.23-.45.44-.66.64a7.62,7.62,0,0,0-1.12,1.22h0a2.93,2.93,0,0,1,0,.29v.2a.17.17,0,0,1,0,.1h0a.36.36,0,0,1-.28.18h-.51a1,1,0,0,1-.31-.44c-.07,0-.12,0-.12.06a3.87,3.87,0,0,1-.64.33,4.79,4.79,0,0,1-.73.24l-.38.07H59a5.37,5.37,0,0,1-.8,0h-.49a5.8,5.8,0,0,1-.81-.16h0a5.86,5.86,0,0,1-1.37-.63A5.73,5.73,0,0,1,54.8,18l-.15-.14A5.63,5.63,0,0,1,54,17a5.07,5.07,0,0,1-.4-.72c0-.12-.1-.25-.14-.37a4.8,4.8,0,0,1-.21-.91v.05A5.65,5.65,0,0,1,53,13.42a1.75,1.75,0,0,0-.12.32v-.26a1,1,0,0,1,0-.24,1.5,1.5,0,0,1,0-.3,1.5,1.5,0,0,1,0-.3v-.25h0a1.66,1.66,0,0,0,.12-.31v.06a1.58,1.58,0,0,1,.17-.47h0v-.16h0v-.1h0v-.05h0v-.18c.11-.24.24-.46.36-.67h0a1.1,1.1,0,0,1,.14-.21.32.32,0,0,1,.14-.14,5.62,5.62,0,0,1,.35-.5,1.12,1.12,0,0,0,.17-.12c.08-.07.11-.09.07,0a9.89,9.89,0,0,1,.89-.94A7.93,7.93,0,0,1,59.8,6.94H61a3.09,3.09,0,0,1,.52.07h.08l.34.11.28.06a5.44,5.44,0,0,1,.54.15h0l.33.11h.26l.35.21h.08l.2.13.28.2a2.55,2.55,0,0,1,.3.26c0-.08.09,0,.19.1s.18.16.11,0V8.26a1.57,1.57,0,0,0-.3-.38h0a1.09,1.09,0,0,1-.13-.17h0A4.64,4.64,0,0,0,63.55,7h0a5.82,5.82,0,0,0-1.17-.65h-.13a6.12,6.12,0,0,0-.69-.22H61.4A7.48,7.48,0,0,0,60,5.88h-.54L58.79,6H58.6a5.6,5.6,0,0,0-.59.12h-.09a7.58,7.58,0,0,0-1.21.43h0l-.32.16a6.71,6.71,0,0,0-.92.57c-.18.13-.35.26-.51.4h0l-.14.12-.08.07h0L54.61,8h0l-.08.08h0v.05h0a8.52,8.52,0,0,0-.72.87,4.06,4.06,0,0,1-.44.49c-.08.12-.15.24-.22.37a9,9,0,0,0-.53,1.08.77.77,0,0,0-.07.16c-.08.22-.15.44-.22.67a6.21,6.21,0,0,0-.16.84v0a.74.74,0,0,1,0,.21V13a.89.89,0,0,1-.06.39v.1a4.33,4.33,0,0,0,0,.72v.13a.54.54,0,0,0,0,.18,1.07,1.07,0,0,0,.06.4c.06.16.1.41.17.63a4.65,4.65,0,0,0,.2.52,6.1,6.1,0,0,0,.59,1.06l.14.2.11.15.12.17.13.14a7,7,0,0,0,1.28,1.33,5.26,5.26,0,0,0,1.53.82h.69c.18.08.23,0,.45.06a1.55,1.55,0,0,0,.36.13,1,1,0,0,0,.25,0c.12,0,.13,0,0-.08A8.54,8.54,0,0,0,59.53,20h.16l.4-.1a.65.65,0,0,1,.34,0,2,2,0,0,1,.35-.09h.14l.23-.06a1.62,1.62,0,0,0,.51-.21h0l.18-.1h0l.16,0h-.06l.11,0h0l.45-.2h0a3,3,0,0,0,.64-.34,7.51,7.51,0,0,0,.83-.66,9.22,9.22,0,0,0,.74-.79c.1-.11.2-.24.29-.36h0A1.27,1.27,0,0,0,64.82,16.73Z"/><path class="cls-2" d="M58.19,6.18h-.35S57.89,6.21,58.19,6.18Z"/><path class="cls-2" d="M53.36,12.16v-.25c0,.25,0,.51,0,.76v-.22C53.36,12.23,53.34,12.07,53.36,12.16Z"/><path class="cls-2" d="M56.31,18.26v-.08l-.13-.1A.83.83,0,0,0,56.31,18.26Z"/><path class="cls-2" d="M53.62,10.11V10h0A.31.31,0,0,1,53.62,10.11Z"/><path class="cls-2" d="M53.35,11.52v0C53.34,11.53,53.35,11.53,53.35,11.52Z"/><path class="cls-2" d="M53.76,9.73h0V9.6A.29.29,0,0,0,53.76,9.73Z"/><path class="cls-2" d="M54.93,16.82v-.05l.09.12Z"/><path class="cls-2" d="M53.88,9.45l-.06.11h0Z"/><path class="cls-2" d="M54.58,16.4h0l.07.11-.1-.21Z"/><path class="cls-2" d="M54.44,8.28l.11-.13L54.69,8h-.06l.08-.1-.16.16-.08.1C54.43,8.27,54.42,8.29,54.44,8.28Z"/><path class="cls-2" d="M53.9,9.06v.11a2.47,2.47,0,0,0,.1-.29A1.62,1.62,0,0,0,53.9,9.06Z"/><path class="cls-2" d="M54,15.25h0l0,.15.07.16h0v-.07c-.06-.14-.11-.27-.17-.4h0a2,2,0,0,0,.07.23Z"/><path class="cls-2" d="M53.51,14.05v-.11S53.46,13.86,53.51,14.05Z"/><path class="cls-2" d="M53.5,13.87v.07C53.52,14,53.55,14.07,53.5,13.87Z"/><path class="cls-2" d="M63.16,18h0l.1-.1.09-.1h0A1.8,1.8,0,0,0,63.16,18Z"/><path class="cls-2" d="M54.25,15.83h0l.06.11h0Z"/><path class="cls-2" d="M64.79,12.37v0Z"/><path class="cls-2" d="M64.78,11.81a2,2,0,0,0-.1-.35,2.47,2.47,0,0,1-.11-.36h0l0-.2c0,.06-.07-.11-.06,0,0-.06.06.13.11.28s.08.29.07.13a6,6,0,0,0,.16.9,1.41,1.41,0,0,1,0-.29l-.06-.11C64.61,11.43,64.69,11.51,64.78,11.81Z"/><path class="cls-2" d="M54.67,16.56h0l-.07-.11Z"/><path class="cls-2" d="M54.31,15.8l.12.24-.09-.21A.07.07,0,0,1,54.31,15.8Z"/><path class="cls-2" d="M53.86,14.81l.06.06v-.1h0c0,.06,0-.14-.07-.2h0A.39.39,0,0,0,53.86,14.81Z"/><path class="cls-2" d="M54.11,15.44v.07h0a1.39,1.39,0,0,0,.12.28l.06.11a2.27,2.27,0,0,0-.14-.42h0v-.06c0,.09.1.18.16.27a2.88,2.88,0,0,1-.13-.31l-.09-.07v-.1a.74.74,0,0,0,.1.27Z"/><path class="cls-2" d="M53.8,14.65v.06a1.42,1.42,0,0,0,.08.18Z"/><path class="cls-2" d="M54.4,16.07v.07l.1.16Z"/><path class="cls-2" d="M53.9,14.71v.06S53.92,14.78,53.9,14.71Z"/><path class="cls-2" d="M54.52,16.17a.29.29,0,0,1,0,.13l.1.21c.07.12.14.21.18.29v-.09h0v-.06l.07.11a.25.25,0,0,0-.07-.16,1.2,1.2,0,0,1-.16-.27h0l-.11-.17Z"/><path class="cls-2" d="M54.52,16.16h0l.11.17s.06.06,0-.07l-.2-.26.1.24h0Z"/><path class="cls-2" d="M55,16.89l-.09-.12s-.07-.05.1.17l-.09-.11.15.24h0c-.09-.15,0-.12-.09-.22h0Z"/><path class="cls-2" d="M54.93,16.77l.17.21Z"/><path class="cls-2" d="M54.93,16.77Z"/><path class="cls-2" d="M55.49,17.53l-.15-.16h0Z"/><path class="cls-2" d="M55.4,17.35s0-.05-.07-.09h0Z"/><path class="cls-2" d="M55.18,17.12l.07.12h0Z"/><path class="cls-2" d="M53.94,15.17c0,.08.06.22-.06-.08h0c0,.08.08.18,0,.16a1.35,1.35,0,0,1,.19.38,1.71,1.71,0,0,0-.13-.38Z"/><path class="cls-2" d="M53.85,15.09V15S53.84,15,53.85,15.09Z"/><path class="cls-2" d="M53.62,14.33v.07C53.66,14.46,53.69,14.54,53.62,14.33Z"/><path class="cls-2" d="M53.64,14.52V14.4C53.61,14.35,53.58,14.32,53.64,14.52Z"/><path class="cls-2" d="M53.78,14.78h0v-.09A.11.11,0,0,0,53.78,14.78Z"/><path class="cls-2" d="M54.8,16.5a2.31,2.31,0,0,0-.18-.35C54.76,16.4,54.62,16.22,54.8,16.5Z"/><path class="cls-2" d="M54.16,15.33h0l.18.41Z"/><path class="cls-2" d="M53.35,11.52h0v.32c0,.06,0-.09,0-.14v.2h0Z"/><path class="cls-2" d="M53.36,12.16v.51h0a.17.17,0,0,1,0,.1v.33a3.53,3.53,0,0,0,0-.46,5.81,5.81,0,0,1,0-.59,1.13,1.13,0,0,1,0-.26v.09A1.31,1.31,0,0,0,53.36,12.16Z"/><path class="cls-2" d="M53.36,11.77v-.35A2,2,0,0,0,53.36,11.77Z"/><path class="cls-2" d="M53.27,12h0v.13A.29.29,0,0,0,53.27,12Z"/><path class="cls-2" d="M53.29,12.22v.06a1,1,0,0,0,0-.25v.06a1.82,1.82,0,0,1,0,.33.11.11,0,0,1,0-.08Z"/><path class="cls-2" d="M53.74,14.18v0a.29.29,0,0,0,0-.13v.24h0v0h0a2.49,2.49,0,0,1,.11.29c-.05-.27-.06-.35-.11-.67a.88.88,0,0,1-.1-.27v.18A1.72,1.72,0,0,1,53.74,14.18Z"/><path class="cls-2" d="M53.74,14.18a1.16,1.16,0,0,0-.08-.32h0C53.68,13.94,53.71,14.08,53.74,14.18Z"/><path class="cls-2" d="M53.66,13.88h0v.3A.44.44,0,0,0,53.66,13.88Z"/><path class="cls-2" d="M53.77,14.28v0Z"/><path class="cls-2" d="M53.4,11.73c0-.42,0,.21.05-.26C53.43,11.39,53.41,11.52,53.4,11.73Z"/><path class="cls-2" d="M55.47,7.17h0l-.22.12h0l.1-.06Z"/><path class="cls-2" d="M53.58,10.11v.08c0,.11,0-.15-.1.27A2.39,2.39,0,0,1,53.58,10.11Z"/><path class="cls-2" d="M53.68,9.67c0,.16,0,.09.06,0V9.58S53.74,9.53,53.68,9.67Z"/><path class="cls-2" d="M55.13,7.32l-.08.08h0A.11.11,0,0,0,55.13,7.32Z"/><path class="cls-2" d="M55.94,6.8l.24-.11L56,6.78Z"/><path class="cls-2" d="M56.19,6.68l.18-.09h.06C56.3,6.6,56.16,6.67,56.19,6.68Z"/><path class="cls-2" d="M55.77,6.9l.15-.09h0Z"/><path class="cls-2" d="M54.52,8.25c.1-.15.11-.18.09-.16l-.12.17S54.53,8.22,54.52,8.25Z"/><path class="cls-2" d="M54.55,8.15l-.11.13A.69.69,0,0,0,54.55,8.15Z"/><path class="cls-2" d="M54.1,8.79h0a1.55,1.55,0,0,1,.19-.36A1.55,1.55,0,0,0,54.1,8.79Z"/><path class="cls-2" d="M54.81,7.71c.12-.13.25-.24.37-.35l.14-.11a.49.49,0,0,1,.12-.13l-.12.09s0-.06.1-.12l.12-.1.13-.07c.13-.11,0,0-.06,0l-.1.07.09-.07c-.31.21-.28.21-.28.22v.07c0,.07-.13.12-.29.29s-.08,0,0,0C54.87,7.59,54.78,7.71,54.81,7.71Z"/><path class="cls-2" d="M54.51,8.11v.07l.08-.1Z"/><path class="cls-2" d="M55.29,7.41h0l.18-.11c.06-.1-.11,0-.28.17h0A.21.21,0,0,1,55.29,7.41Z"/><path class="cls-2" d="M55.66,7h0l.12-.08c-.09.06-.19.11-.28.18S55.59,7,55.66,7Z"/><path class="cls-2" d="M54.82,7.82l-.11.1-.08.1h.06l.13-.14a3.45,3.45,0,0,1,.26-.28h0l-.18.17Z"/><path class="cls-2" d="M54,8.88h0L53.9,9h0Z"/><path class="cls-2" d="M54.16,8.56a.19.19,0,0,1,.05-.13c-.09.14-.1.17-.09.17h0S54.14,8.6,54.16,8.56Z"/><path class="cls-2" d="M55.32,7.25h0l-.12.09-.1.1c.08-.06.07,0,0,0l.21-.15c0-.06.17-.15.26-.24s.18-.14.15-.13h0a2.47,2.47,0,0,1-.27.21Z"/><path class="cls-2" d="M54.35,8.28h0a.52.52,0,0,1,.1-.18h0a2.5,2.5,0,0,0-.21.35Z"/><path class="cls-2" d="M54.54,8l.18-.23c-.07.07-.19.22-.23.27S54.49,8.08,54.54,8Z"/><path class="cls-2" d="M54.81,7.66a.09.09,0,0,0,0,.07Z"/><path class="cls-2" d="M54.09,8.81,54,8.9h0Z"/><path class="cls-2" d="M54.05,8.94a1.51,1.51,0,0,0-.11.22,1.64,1.64,0,0,0,.16-.29Z"/><path class="cls-2" d="M53.66,10V9.86c0,.09-.07.18-.1.27v0A1.21,1.21,0,0,1,53.66,10Z"/><path class="cls-2" d="M53.59,10.28v-.1h0Z"/><path class="cls-2" d="M53.8,9.63V9.58h0l-.06.14h0Z"/><path class="cls-2" d="M54,9.17a1.11,1.11,0,0,0-.16.39l.06-.11V9.34c.11-.24.27-.54.27-.45.08-.24-.15.17-.26.41Z"/><path class="cls-2" d="M56.33,6.53l.34-.1L57,6.35h.11l.26-.07h-.21L57,6.34l-.26.09Z"/><path class="cls-2" d="M57.71,6.1h-.14c-.11,0-.3.07-.21.07a.79.79,0,0,1,.22-.06h.13Z"/><path class="cls-2" d="M55.58,7.13c.31-.17,0,0,.3-.22A1.66,1.66,0,0,0,55.58,7.13Z"/><path class="cls-2" d="M64.83,12.7v0Z"/><path class="cls-2" d="M64.4,9.91h0a9.68,9.68,0,0,0-.74-1.14c.11.28.19.68.07.68l.15.23.15.24V10a7.82,7.82,0,0,1,.36.91c.11.09.15-.11.14-.36a3.74,3.74,0,0,0-.09-.66Z"/><path class="cls-2" d="M61.86,7.38h0a6.47,6.47,0,0,0-1-.63l.12.08.13.08.27.16a7.5,7.5,0,0,1,.86.62,6,6,0,0,1,.67.66h0a3.11,3.11,0,0,1,.29.33V8.61c-.22-.22-.39-.43-.59-.63A4.29,4.29,0,0,0,61.86,7.38Z"/><path class="cls-2" d="M56.13,18.07h0l.13.1c0,.06.07.09,0,.08l.14.14.15.11-.09-.11-.23-.21h0c-.11-.1-.24-.21-.29-.27a.44.44,0,0,1-.15-.08h0Z"/><path class="cls-2" d="M55.57,17.66v.08C55.57,17.82,55.66,17.75,55.57,17.66Z"/><path class="cls-2" d="M55.68,17.81l.17.11-.08-.09Z"/><path class="cls-2" d="M56.17,18.19h0c.38.3,0,0,.13.2h.15A2.83,2.83,0,0,1,56.17,18.19Z"/><path class="cls-2" d="M61.81,19h0a4.7,4.7,0,0,0,1-.57h0a5.36,5.36,0,0,0-.53.28l-.23.14-.11.07-.12.06.13-.06H62Z"/><path class="cls-2" d="M61.59,19.13h0l-.23.06.12-.06-.29.11.22,0Z"/><path class="cls-2" d="M64.34,16.49a.44.44,0,0,1-.08.11l.06-.12h0c-.1.18-.19.33-.2.27a1.28,1.28,0,0,1,.15-.25h0a1.15,1.15,0,0,0-.12.25l-.06.13a.8.8,0,0,1-.11.25,1.36,1.36,0,0,0,.26-.41c0,.11,0,.09.18-.23Z"/><path class="cls-2" d="M62.66,19.07l-.08.05Z"/><path class="cls-2" d="M62.44,19.25v-.06l-.16.1Z"/><path class="cls-2" d="M64.93,13.18v.75h0a5.23,5.23,0,0,1,0-.56Z"/><path class="cls-2" d="M64.83,12.46a1,1,0,0,0,0,.24v-.1a2.54,2.54,0,0,1,0,.39h0v.18h0c0-.25.06,0,0-.38h0a.76.76,0,0,1,0,.3v.09h0v.32a2.16,2.16,0,0,1,0,.36v-.17a.09.09,0,0,1,0,.07v.18s0-.12.06.16a.81.81,0,0,1,0,.22H65v-.1a2.29,2.29,0,0,0,0-.37v-.78a3.16,3.16,0,0,0-.11-.51,1.52,1.52,0,0,0-.16-.42A.53.53,0,0,1,64.83,12.46Zm.19,1v-.37a1.15,1.15,0,0,1,0,.37Z"/><path class="cls-2" d="M64.54,16.57h0c0,.12-.1.24-.15.37a3.36,3.36,0,0,1-.19.38l-.19.24a4.22,4.22,0,0,1-.42.62h0l-.05.06h0a4.83,4.83,0,0,1-.77.73l.14-.07h0a.61.61,0,0,0,.26-.15l.14-.12.16-.13a6.55,6.55,0,0,0,.49-.56h0l.08-.09.07-.12a6.42,6.42,0,0,0,.34-.56c.11-.22.19-.43.27-.63Z"/><path class="cls-2" d="M63.08,18.12l-.22.17v.09A.92.92,0,0,0,63.08,18.12Z"/><path class="cls-2" d="M63.58,17.67h0l.2-.25h0l.19-.23-.09.09.11-.16a2.25,2.25,0,0,1-.21.24l-.22.28-.21.24h0l-.09.1-.1.1A2.33,2.33,0,0,0,63.58,17.67Z"/><path class="cls-2" d="M59.91,19.43h.37c.11,0,0,0,.21-.05h.07l.24-.05a1.31,1.31,0,0,1-.28,0H59.08a1.5,1.5,0,0,1-.3,0l.29.06a1.19,1.19,0,0,1,.32.1A1.51,1.51,0,0,0,59.91,19.43Z"/><path class="cls-2" d="M65,13.05v.37A1.15,1.15,0,0,0,65,13.05Z"/><path class="cls-2" d="M65,13.5v-.25h0A1,1,0,0,0,65,13.5Z"/><path class="cls-2" d="M65,13.76a.09.09,0,0,0,0-.07v.07Z"/><path class="cls-2" d="M65,13.09c0-.22-.06-.37,0-.29.07.4,0,.13,0,.38h0Z"/><path class="cls-2" d="M61.78,19l-.17.08Z"/><path class="cls-2" d="M61.63,19.09h0L61.8,19h0l.21-.1h-.08L61.8,19h0l-.17.08h-.09l-.12.06Z"/><path class="cls-2" d="M64.88,14.22A.94.94,0,0,1,65,14h0Z"/><path class="cls-2" d="M65,13.63a3.23,3.23,0,0,0,0-.44h0V13h0v.39A5.23,5.23,0,0,0,65,14h0v-.09C64.93,13.62,65,13.57,65,13.63Z"/><path class="cls-2" d="M65,13.69v.17a2.16,2.16,0,0,0,0-.36A.61.61,0,0,1,65,13.69Z"/><path class="cls-2" d="M65,13.63v.06a.61.61,0,0,0,0-.19,1.31,1.31,0,0,1,0-.28h0v0h0A2.81,2.81,0,0,1,65,13.63Z"/><path class="cls-2" d="M54.32,16h0l-.06-.11Z"/><path class="cls-2" d="M54,15.22a2,2,0,0,1-.07-.23v.18C53.92,15.11,53.93,15.07,54,15.22Z"/><path class="cls-2" d="M54,15.22h0v.08a1.81,1.81,0,0,0-.14-.41h0C53.9,15,54,15.11,54,15.22Z"/><path class="cls-2" d="M54.13,15.55l-.07-.16L54,15.24c-.06-.08-.06-.06,0,0a1.22,1.22,0,0,1,.13.28l.15.3h0A1.17,1.17,0,0,1,54.13,15.55Z"/><path class="cls-2" d="M53.94,15c.06.13.11.26.17.4A2.83,2.83,0,0,0,53.94,15Z"/><path class="cls-2" d="M53.7,14.28V14.1h0v.14c0,.14.1.28.16.42h0a1.27,1.27,0,0,1-.06-.28v-.07Z"/><path class="cls-2" d="M53.88,14.89V15h0v.09a2.83,2.83,0,0,1,.17.4v0a1,1,0,0,0-.1-.27,2.06,2.06,0,0,1-.12-.35l-.06-.06a.24.24,0,0,0-.06-.2h0Z"/><path class="cls-2" d="M54.25,15.83a1.39,1.39,0,0,1-.12-.28A1.39,1.39,0,0,0,54.25,15.83Z"/><path class="cls-2" d="M54,15.24h0c-.07-.15-.08-.11-.06-.05v.08C54,15.18,54,15.16,54,15.24Z"/><path class="cls-2" d="M53.7,14.26v.07h0S53.71,14.26,53.7,14.26Z"/><path class="cls-2" d="M53.73,14.23v.07S53.75,14.3,53.73,14.23Z"/><path class="cls-2" d="M54.31,15.94c0,.11.11.2.14.28v-.08l-.11-.2Z"/><path class="cls-2" d="M54.32,15.74h0v.09A.26.26,0,0,0,54.32,15.74Z"/><path class="cls-2" d="M54.17,15.52a5.85,5.85,0,0,0,.41.88v-.09a5.52,5.52,0,0,1-.28-.54h0a1.77,1.77,0,0,1-.15-.31Z"/><path class="cls-2" d="M54.66,16.55l-.08-.15-.06-.1A2,2,0,0,0,54.66,16.55Z"/><path class="cls-2" d="M54.16,15.49a1.77,1.77,0,0,0,.15.31h0v0h0v-.09c-.06-.09-.11-.18-.16-.27Z"/><path class="cls-2" d="M54.17,15.52a1.38,1.38,0,0,0,.14.42l.11.2v-.07l.12.23.06.1h0A6,6,0,0,1,54.17,15.52Z"/><path class="cls-2" d="M54.52,16.17h0v0Z"/><path class="cls-2" d="M54.65,16.37h0l-.11-.17Z"/><path class="cls-2" d="M54.88,16.77v0h0v0l-.13-.2v.06Z"/><path class="cls-2" d="M54.8,16.71h0l.09.12v-.07Z"/><path class="cls-2" d="M54.84,16.76v.07l.09.11c-.17-.22-.14-.21-.1-.17l-.11-.17C54.81,16.67,54.87,16.78,54.84,16.76Z"/><path class="cls-2" d="M53.78,14.78h0l-.06-.17c-.06-.17.06.19,0,.15a.81.81,0,0,1,.13.3h0A1.28,1.28,0,0,0,53.78,14.78Z"/><path class="cls-2" d="M53.8,14.74c0-.14-.06-.15-.06-.11h0A.74.74,0,0,1,53.8,14.74Z"/><polygon class="cls-2" points="53.86 15.1 53.86 15.1 53.85 15.09 53.86 15.1"/><polygon class="cls-2" points="53.63 14.29 53.57 14.1 53.6 14.3 53.63 14.29"/><path class="cls-2" d="M54.44,15.94a2,2,0,0,0-.14-.34A2,2,0,0,0,54.44,15.94Z"/><path class="cls-2" d="M53.94,14.82h0a1,1,0,0,0,.15.39A1.38,1.38,0,0,1,53.94,14.82Z"/><path class="cls-2" d="M53.39,11.77Z"/><path class="cls-2" d="M53.31,11.54v-.06h0v-.05h0V11.2A1.93,1.93,0,0,1,53.31,11.54Z"/><path class="cls-2" d="M53.35,11.91v.4h0a.24.24,0,0,1,0,.12v.21C53.34,12.4,53.34,12.15,53.35,11.91Z"/><path class="cls-2" d="M53.35,11.52v.35h0v-.09a2,2,0,0,1,0-.35S53.37,11.49,53.35,11.52Z"/><path class="cls-2" d="M53.3,12a1.13,1.13,0,0,0,0-.26v-.05a1.41,1.41,0,0,0,0,.29v0Z"/><path class="cls-2" d="M53.27,12a.21.21,0,0,1,0,.11h0V12Z"/><path class="cls-2" d="M53.54,13.65v-.08a1.67,1.67,0,0,0,.13.45v-.33c0-.13,0-.22-.05-.25h0v0a.48.48,0,0,0,.06.21v-.15a.78.78,0,0,1-.07-.18c0-.09,0-.19-.06-.27a2,2,0,0,0,0,.35A.81.81,0,0,1,53.54,13.65Z"/><path class="cls-2" d="M53.55,13.44a.67.67,0,0,0,.05.25v-.15C53.57,13.48,53.56,13.43,53.55,13.44Z"/><path class="cls-2" d="M53.58,13.47V14a.29.29,0,0,1,0,.13v-.27h0V13.7A.44.44,0,0,0,53.58,13.47Z"/><path class="cls-2" d="M53.58,13.54v.2A.56.56,0,0,0,53.58,13.54Z"/><path class="cls-2" d="M53.4,11.48c.05-.38,0,.19.06-.24C53.44,11.17,53.41,11.29,53.4,11.48Z"/><polygon class="cls-2" points="55.33 7.27 55.37 7.24 55.17 7.36 55.14 7.39 55.33 7.27"/><path class="cls-2" d="M53.48,10.49h0c-.06.24,0-.12-.09.31C53.41,10.68,53.41,10.85,53.48,10.49Z"/><path class="cls-2" d="M53.59,10.07h0a1.42,1.42,0,0,0,.1-.29c-.11.34-.07.11-.14.29s0,.11,0,.08v-.07Z"/><path class="cls-2" d="M54.53,8l.12-.16Z"/><path class="cls-2" d="M55.52,7l-.08.08h.05Z"/><path class="cls-2" d="M55.49,7.08h-.05a.49.49,0,0,0-.12.13h.08A2.47,2.47,0,0,0,55.67,7h-.06S55.5,7.09,55.49,7.08Z"/><path class="cls-2" d="M55.18,7.36l.12-.09h0Z"/><path class="cls-2" d="M54.49,8.06V8l-.06.07Z"/><path class="cls-2" d="M54.87,7.76A.64.64,0,0,1,55,7.61l.11-.13L55,7.6C54.81,7.78,54.81,7.8,54.87,7.76Z"/><path class="cls-2" d="M54.19,8.55c0-.05.05-.09.07-.14l-.1.15v.1Z"/><path class="cls-2" d="M54.2,8.75c.16-.32,0-.09-.06,0v.11C54.14,8.79,54.21,8.69,54.2,8.75Z"/><path class="cls-2" d="M55,7.49l.11-.09c.09-.09.06-.07,0,0a.52.52,0,0,1-.1.11Z"/><path class="cls-2" d="M54.75,7.76h0l0,.06Z"/><path class="cls-2" d="M55,7.48l.07-.08h0a1.45,1.45,0,0,0-.21.22h0Z"/><path class="cls-2" d="M54.06,8.73h0c.08-.15,0-.09,0-.1a1.34,1.34,0,0,0-.12.24L54,8.78Z"/><path class="cls-2" d="M54.34,8.42l-.07.1a1.59,1.59,0,0,0,.22-.26C54.42,8.33,54.3,8.52,54.34,8.42Z"/><path class="cls-2" d="M54.55,8.15l.06-.06L54.7,8h0Z"/><path class="cls-2" d="M54.83,7.75c-.08.09-.18.2-.28.33l.16-.16C54.77,7.85,54.83,7.79,54.83,7.75Z"/><path class="cls-2" d="M54.75,7.93h0l.15-.13c0-.06,0,0-.1,0Z"/><path class="cls-2" d="M54.33,8.4l.06-.09h0Z"/><path class="cls-2" d="M53.9,9V8.91c-.12.25,0,.14,0,.16Z"/><path class="cls-2" d="M54,8.89V8.83l-.06.05a2.49,2.49,0,0,1-.11.29V9.06h0l0,.13s-.13.24-.16.38c.21-.62.1-.08.16-.21l-.06.13.09-.18a1.31,1.31,0,0,1-.12.27h0c.18-.34.11-.37.3-.73h0Z"/><path class="cls-2" d="M53.86,9.36l-.09.18v.09A1.43,1.43,0,0,0,53.86,9.36Z"/><path class="cls-2" d="M55.08,7.37h0L55,7.48A.44.44,0,0,0,55.08,7.37Z"/><path class="cls-2" d="M54.55,8.15a.69.69,0,0,1-.11.13h0l-.08.12c0,.1.08-.09.15-.16l.12-.17Z"/><path class="cls-2" d="M54.7,8V8l.07-.08L54.69,8Z"/><path class="cls-2" d="M53.9,9v.07h0Z"/><path class="cls-2" d="M54.42,8.23l-.1.15Z"/><path class="cls-2" d="M55.08,7.46l.1-.1c-.12.11-.25.22-.37.35s.06-.12.16-.22h0l-.17.18v.07h0L54.54,8c0,.06-.06.06,0,0h0a.52.52,0,0,0-.1.18h0c.1-.15,0,.08.07,0a.91.91,0,0,1,.2-.24,1.57,1.57,0,0,0,.2-.25,5.43,5.43,0,0,1-.42.53,1.22,1.22,0,0,1-.17.29l-.12.18a.69.69,0,0,0-.1.19h0l0-.09-.15.2h0l0-.07V8.76h0a1.9,1.9,0,0,1,.23-.39l.06-.09h0v0h0V8.08h0c.1-.13.2-.24.28-.33s-.06.1-.12.17l.11-.1V7.76c-.06,0-.06,0,.07-.16l.16-.12C55.15,7.42,55.16,7.4,55.08,7.46Z"/><path class="cls-2" d="M54.09,8.7h0V8.6h0S54.17,8.55,54.09,8.7Z"/><path class="cls-2" d="M54,8.83V8.75l-.06.09H54Z"/><path class="cls-2" d="M54.32,8.39V8.28l-.09.13a.14.14,0,0,1-.07.14A1.21,1.21,0,0,1,54.32,8.39Z"/><path class="cls-2" d="M54.35,8.28v.11h0l.1-.15V8.19h0a5.43,5.43,0,0,0,.42-.53,1.57,1.57,0,0,1-.2.25.91.91,0,0,0-.2.24c-.09.13,0-.1-.07,0v.07Z"/><path class="cls-2" d="M53.6,10.18c0-.09.07-.15.07-.13h0v.1Z"/><path class="cls-2" d="M53.49,10.52v.16a.67.67,0,0,1,0-.2.38.38,0,0,1,.07-.27h0A1.55,1.55,0,0,0,53.49,10.52Z"/><path class="cls-2" d="M53.78,9.64V9.57A.09.09,0,0,0,53.78,9.64Z"/><path class="cls-2" d="M53.75,9.76h0a2.44,2.44,0,0,0-.1.24h0l.16-.4h0Z"/><path class="cls-2" d="M53.78,9.64a1.08,1.08,0,0,0-.08.19l.06-.13A.14.14,0,0,1,53.78,9.64Z"/><path class="cls-2" d="M53.82,9.58h0c.07-.16.13-.29.13-.23h0v.11Z"/><path class="cls-2" d="M53.66,10a2.44,2.44,0,0,1,.1-.24h0l-.06.13Z"/><path class="cls-2" d="M53.8,9.63Z"/><path class="cls-2" d="M54.19,8.55l-.06.11h0Z"/><path class="cls-2" d="M54.32,8.38h0a1,1,0,0,0-.13.16l-.06.13h0v.08h0a.69.69,0,0,1,.1-.19c0-.06.08-.13.12-.18a1.22,1.22,0,0,0,.17-.29h0C54.37,8.3,54.35,8.35,54.32,8.38Z"/><path class="cls-2" d="M53.9,9l.2-.33.15-.22.07-.09h0l-.07.09-.15.22-.1.26Z"/><polygon class="cls-2" points="56.19 6.68 56.19 6.68 56.18 6.69 56.19 6.68"/><path class="cls-2" d="M56.17,6.63h.11c.11,0,.17-.07.15,0h-.26Z"/><path class="cls-2" d="M55.63,7l.18-.1L56,6.78l.19-.14L56,6.7l-.11.07-.14.08Z"/><path class="cls-2" d="M56.17,6.63h0L56,6.78l.22-.09h0a1.19,1.19,0,0,1,.24-.13c.13,0-.07,0-.15,0S56.12,6.68,56.17,6.63Z"/><path class="cls-2" d="M56.75,6.33,57,6.27h-.29c.19-.06.1,0,0,0s-.26.12-.19.1S57,6.3,56.75,6.33Z"/><path class="cls-2" d="M55.08,7.57c.09-.08.08-.07.07-.07Z"/><path class="cls-2" d="M55.27,7.36a2.39,2.39,0,0,0-.22.23l.1-.09A.71.71,0,0,1,55.27,7.36Z"/><path class="cls-2" d="M55.08,7.57l.07-.07h0l-.1.09h0Z"/><path class="cls-2" d="M57.77,6.1h.33a.33.33,0,0,1-.14,0Z"/><path class="cls-2" d="M56.94,18.82a.61.61,0,0,1-.16-.12A.61.61,0,0,0,56.94,18.82Z"/><polygon class="cls-2" points="62.79 18.4 62.8 18.39 62.79 18.37 62.79 18.4"/><path class="cls-2" d="M63.18,8.69c.21.3.34.51.49.76h0a7.25,7.25,0,0,0-.53-.79Z"/><path class="cls-2" d="M60.33,6.28l.35.16.4.18a3.17,3.17,0,0,1,.41.21,6.12,6.12,0,0,1,.79.54A7.06,7.06,0,0,1,63,8l.33.37c.1.12.21.25.3.38a2,2,0,0,0-.11-.26h0A8.37,8.37,0,0,0,61.75,6.9,5.57,5.57,0,0,0,59.57,6,.55.55,0,0,1,59.23,6h-.16c.42.12.83.26,1.24.42l.28.11.15.07.14.06a4.13,4.13,0,0,0-1-.52C59.71,6,59.66,6,59.68,6h.21A4,4,0,0,0,60.33,6.28Z"/><path class="cls-2" d="M60.68,6.44l-.35-.16a2.68,2.68,0,0,1-.49-.11h-.21l.2.09a4.13,4.13,0,0,1,1,.52,6.47,6.47,0,0,1,1,.63h0a4.1,4.1,0,0,1,.71.6c.2.2.37.41.59.63V8.7a7.25,7.25,0,0,1,.53.79c.12,0,0-.4-.07-.68s-.2-.26-.3-.38L63,8a7.4,7.4,0,0,0-.72-.66,6.12,6.12,0,0,0-.79-.54,3.17,3.17,0,0,0-.41-.21Z"/><path class="cls-2" d="M60.54,19.36h-.07c-.18,0-.1,0-.21.05h.09Z"/><path class="cls-2" d="M56.31,18.26a.73.73,0,0,1-.17-.18,1.18,1.18,0,0,0-.29-.16l.18.18a.76.76,0,0,0-.11-.14l.25.23A.37.37,0,0,0,56.31,18.26Z"/><path class="cls-2" d="M55.62,17.74s-.08,0,0,.05h.08Z"/><path class="cls-2" d="M55,17.07a.75.75,0,0,0,.07.12l.19.16v-.06c.13.13.07,0,0-.05a.91.91,0,0,0-.21-.18.35.35,0,0,1,.05.08Z"/><path class="cls-2" d="M55.34,17.37a2.17,2.17,0,0,1,.29.24c.08.11.06.13-.13,0l.07.07a1.67,1.67,0,0,1,.28.18l-.22-.24-.22-.25h0C55.59,17.57,55.25,17.24,55.34,17.37Z"/><path class="cls-2" d="M55.09,17.14a.35.35,0,0,0-.05-.08h0Z"/><path class="cls-2" d="M55.25,17.29v.06h0c-.09-.13.25.2.06,0H55.2C55.32,17.33,55.38,17.42,55.25,17.29Z"/><path class="cls-2" d="M55.57,17.66c.09.09.08.09,0,.08v.05h.09l.08.09A1.18,1.18,0,0,1,56,18h0l-.27-.2h0Z"/><path class="cls-2" d="M56.31,18.26a.37.37,0,0,1-.14-.07,2.31,2.31,0,0,0,.24.2h0Z"/><path class="cls-2" d="M61.14,19.23H61l-.23.06A1.91,1.91,0,0,0,61.14,19.23Z"/><path class="cls-2" d="M62.66,19.07l.08-.06h-.07Z"/><path class="cls-2" d="M63.82,17.24l-.07.12v-.05h0Z"/><path class="cls-2" d="M63.18,18h0l.2-.17h0a2.09,2.09,0,0,0-.24.28Z"/><path class="cls-2" d="M56.29,18.19c.1,0,.12.13.34.25l-.37-.32v.05c-.37-.33.19.1-.1-.17l.12.1h0a1.16,1.16,0,0,0,.21.16l.31.2.29.16.25.12.25.1.25.09.26.08.3.09.35.1a4.44,4.44,0,0,1-1.46-.46,1.19,1.19,0,0,1-.25-.13,1,1,0,0,0-.17-.1h0c.34.24-.32-.13.13.17,0,0-.06-.05,0-.05l.26.17.19.12a.94.94,0,0,1-.26-.14A.28.28,0,0,0,57,18.7l.22.16.12.09a.71.71,0,0,1,.1.14.79.79,0,0,0,.26.08c.22.1.27.12.19.12h0l.47.16c.14,0,.24.08.21.1l.35.07.32.05h-.09a7.63,7.63,0,0,1-1.62-.51,3.79,3.79,0,0,0-.57-.34h0c.07,0,0,0-.16-.14a.53.53,0,0,1-.21-.11v-.09l.17.14a.93.93,0,0,1-.14-.14,5.62,5.62,0,0,0,.65.43c.12,0-.38-.27-.41-.33l-.32-.18Zm1.57,1.09h0l-.19-.1Z"/><path class="cls-2" d="M62,19.42l.13-.06c-.12.05-.1,0-.11,0h0l-.22.08-.2.14h-.2l.23-.08h-.08a1,1,0,0,0-.29.11c-.36.08,0-.05-.23,0h-.9c-.36,0,.11,0,.22-.05a4,4,0,0,1-.49,0l.09.06h.3l.22-.07c.45-.06.11,0,.34,0h.33c0-.06.27-.08.25-.11h.21a.58.58,0,0,0,.26-.06l.16-.06.18-.08.26-.14A1.16,1.16,0,0,0,62,19.42Z"/><path class="cls-2" d="M62.48,19.19l.1-.07Z"/><path class="cls-2" d="M60.69,19.68H61l.24-.06a.29.29,0,0,0-.13,0,2,2,0,0,0-.52.08l-.12.06h0Z"/><path class="cls-2" d="M57.86,19.28l-.19-.1Z"/><path class="cls-2" d="M56.6,18.51l.17.14a.93.93,0,0,1-.14-.14,5.62,5.62,0,0,0,.65.43c.12,0-.38-.27-.41-.33l-.32-.18a2.6,2.6,0,0,0-.26-.24h0l.23.21A.44.44,0,0,1,56.6,18.51Z"/><path class="cls-2" d="M63.75,17.5l.1-.09C63.94,17.25,63.82,17.41,63.75,17.5Z"/><path class="cls-2" d="M64.43,16.52h0l-.06.09a.61.61,0,0,1-.12.16,1.4,1.4,0,0,0,.16-.26h-.06c-.15.32-.21.34-.18.23a1.36,1.36,0,0,1-.26.41v.07h0a2.25,2.25,0,0,0,.21-.24l-.11.16.09-.09c-.15.25-.17.23-.19.23h0l-.2.25c.12-.14,0,0,0,0a2.77,2.77,0,0,1-.4.36l-.1.09a1.07,1.07,0,0,1-.26.26h0a4.7,4.7,0,0,1-1,.57h0l-.25.08h-.14l-.22.05h-.09a1.3,1.3,0,0,1-.33.07l-.24,0h0v.06H60a1.46,1.46,0,0,1-.51-.07,1.19,1.19,0,0,0-.32-.1l-.29-.06a4.44,4.44,0,0,1-1.46-.46,1.19,1.19,0,0,1-.25-.13h0L57,18.21c.34.24-.32-.13.13.17,0,0-.06-.05,0-.05l.26.17.19.12a.94.94,0,0,1-.26-.14.28.28,0,0,0-.15-.08l.22.16.12.09a.71.71,0,0,1,.1.14.79.79,0,0,0,.26.08c.22.1.27.12.19.12H57.9l.47.16c.14,0,.24.08.21.1l.35.07.32.05H60.4l.12-.06c.32,0,.45-.08.52-.08a.29.29,0,0,1,.13,0h.12c-.28.05.26-.07.3-.15h.16l.25-.15h.12l.17-.09c.28-.15.61-.41.51-.27l-.16.11a.13.13,0,0,0-.11.09c-.18.1-.18.09-.17.07s0-.05-.07,0l-.17.09V19a1.66,1.66,0,0,0-.31.12l-.21.06h0l-.23.08h.2l.2-.14L62,19h.11l-.13.06A2,2,0,0,1,62.3,19l.16-.09.1-.07.08-.05h.07a4.83,4.83,0,0,0,.77-.73,4,4,0,0,0,.5-.72l.19-.24c.06-.11.12-.24.19-.38a2.61,2.61,0,0,0,.15-.37ZM63.26,18s-.22.22-.19.15S63.39,17.86,63.26,18Z"/><path class="cls-2" d="M63.88,17.4l.23-.27-.17.22Z"/><path class="cls-2" d="M63.75,17.5Z"/><path class="cls-2" d="M62.56,19.09s0-.05.11-.09l.16-.11c.1-.14-.23.12-.51.27.12-.05.09,0,.07,0S62.38,19.19,62.56,19.09Z"/><path class="cls-2" d="M61.39,19.55h.18l.21-.06a1.66,1.66,0,0,1,.31-.12v-.06c-.08,0-.14.05-.12,0l-.25.15h-.16c0,.08-.58.2-.3.15Z"/><path class="cls-2" d="M62.32,19.16l-.17.09h0Z"/><path class="cls-2" d="M63.07,18.17c0,.07.15-.12.19-.15S63.22,18,63.07,18.17Z"/><path class="cls-2" d="M61.63,19.09l.25-.08h0l-.17.07Z"/><path class="cls-2" d="M57.08,18.61a1,1,0,0,0-.17-.1h0l.14.09Z"/><path class="cls-2" d="M64.48,16.55c-.13.25,0,0-.12.13v.09c.09-.15,0,.1.16-.22Z"/><path class="cls-2" d="M61.19,19.67a1,1,0,0,1,.29-.11h0a.66.66,0,0,1-.28.05l-.24.06C61.2,19.62,60.83,19.75,61.19,19.67Z"/><path class="cls-2" d="M61.48,19.56H61.2A.66.66,0,0,0,61.48,19.56Z"/><path class="cls-2" d="M60,19.78h.63l-.27.07H60.2C60.15,19.78,59.68,19.74,60,19.78Z"/><path class="cls-2" d="M63.88,17.4h.06l.17-.22Z"/><path class="cls-2" d="M63.91,17.47a2.39,2.39,0,0,1-.22.23A2.74,2.74,0,0,0,63.91,17.47Z"/><path class="cls-2" d="M61.89,19H62l.14-.06C62.25,18.81,62.06,18.91,61.89,19Z"/><path class="cls-2" d="M60.37,19.38h-.21a3.38,3.38,0,0,0,.45,0v-.06h0Z"/><path class="cls-2" d="M56.32,18.1l-.14-.1h0l.12.1Z"/><path class="cls-2" d="M63.32,14.7l.33-.11H65a4.17,4.17,0,0,1,.63.18s.57.32.74.45l.13.12.15.14a.64.64,0,0,0,.1.13.27.27,0,0,0,.07.08h0a.75.75,0,0,0,.07.12L67,16h0l.13.33.11.4v.51a.21.21,0,0,1,0,.11v.6l-.06.27a.32.32,0,0,1-.08.25c-.08.09,0,.13-.07.2l-.06.14-.06.11-.09.18a3.72,3.72,0,0,1-.19.34l-.17.28c0,.06-.08.11-.11.17l-.08.13-.1.14-.09.16c-.06.08-.11.16-.16.24l-.06.1a1.76,1.76,0,0,0-.14.23c0,.06-.81,1.59-.84,1.65l-.1.25-.06.17-.07.25-.06.16v.13a.29.29,0,0,0,0,.13s0,.05.07,0h.15l1.29-.06h1.39a1.69,1.69,0,0,0,.44-.12,2,2,0,0,0,.34-.14l.18-.11.1-.09V23a.86.86,0,0,0,.13-.14l.11-.15c.06-.08.1-.17.16-.25a.72.72,0,0,1,.17-.22h.09a.22.22,0,0,1,.16,0l.06.07.06.18a.24.24,0,0,1,0,.12v.81l-.06.17-.09.22-.09.15-.12.19c0,.07-.12.13-.17.2l-.08.09-.1.1-.13.11-.07.06-.17.13-.09.05L68.1,25l-.25.11a2.44,2.44,0,0,0-.44.13l-.26.06H64.91l-.18.05a3.47,3.47,0,0,0-.46.13l-.2.1-.1.07-.11.08h0l-.14.12-.11.09-.09.09-.12.14-.07.09,0,0-.09.09-.07.07a.4.4,0,0,1-.21.09.16.16,0,0,1-.17,0,.24.24,0,0,1-.06-.11.75.75,0,0,1,0-.26,1,1,0,0,1,0-.24V24.84l.06-.19a1.13,1.13,0,0,1,.08-.24.22.22,0,0,1,.06-.18,2.44,2.44,0,0,1,.1-.24,1.11,1.11,0,0,1,.07-.22l.08-.17.09-.2.17-.36.16-.33c0-.06,0-.12.08-.19l.14-.27.12-.24.17-.35c0-.08.1-.16.14-.24a1.71,1.71,0,0,0,.13-.23c0-.09.08-.18.13-.27l.11-.23.1-.25.11-.27a.27.27,0,0,1,0-.16.88.88,0,0,0,.11-.29l.12-.4a1.22,1.22,0,0,1,.07-.17c.07-.25.17-.77.21-1v-.89a1.09,1.09,0,0,0-.07-.24l-.09-.17h0a.64.64,0,0,0-.1-.13l-.09-.12.06-.06-.17-.12-.14-.08-.25-.12h-.95a1.91,1.91,0,0,0-.47.12.8.8,0,0,0-.16.08.79.79,0,0,1-.13.08.41.41,0,0,1-.11.07l-.09.06-.09.08-.08.09-.11.13a2.94,2.94,0,0,0-.25.46,2.75,2.75,0,0,0-.11.41v.87c0,.08,0,.14,0,.17a.28.28,0,0,1-.11.08h-.36a.22.22,0,0,1-.1-.09.89.89,0,0,1-.08-.17,2.46,2.46,0,0,1-.14-.38V17.7h0v-.58a1.21,1.21,0,0,1,.11-.32.64.64,0,0,1,.1-.26l.16-.29c0-.08.1-.14.15-.21a1.46,1.46,0,0,1,.16-.19.52.52,0,0,0,.11-.1l.11-.1.07-.06a.39.39,0,0,0,.1-.08l.1-.06.09-.08h0l.13-.07.16-.1h0l.19-.1A1,1,0,0,0,63,15h0l.34-.11Z"/></g></svg>